<svg xmlns="http://www.w3.org/2000/svg" viewBox="0 0 750 500"><style>.a{stop-color:#5A0389;}.b{stop-color:#553BD2;}.c{stop-color:#F44CE1;}.d{stop-color:#565DE9;}.e{stop-color:#FF17D0;}.f{stop-color:#FFD394;}</style><style type="text/css">
	.st0{fill:#F9FAFC;}
	.st1{clip-path:url(#SVGID_2_);fill:url(#SVGID_3_);}
	.st2{clip-path:url(#SVGID_2_);}
	.st3{fill:url(#SVGID_4_);}
	.st4{fill:url(#SVGID_5_);}
	.st5{fill:url(#SVGID_6_);}
	.st6{fill:url(#SVGID_7_);}
	.st7{fill:url(#SVGID_8_);}
	.st8{fill:url(#SVGID_9_);}
	.st9{fill:url(#SVGID_10_);}
	.st10{fill:url(#SVGID_11_);}
	.st11{fill:url(#SVGID_12_);}
	.st12{fill:url(#SVGID_13_);}
</style><path class="st0" d="M-357.36 465.47c-0.43 0.44-0.8 0.93-1.11 1.45l-0.47-0.24c-0.07-0.3-0.35-0.5-0.66-0.47 -0.33 0.04-0.57 0.34-0.53 0.67 0.04 0.33 0.34 0.57 0.67 0.53 0.07-0.01 0.13-0.03 0.18-0.05l0.45 0.23c-0.25 0.55-0.43 1.14-0.54 1.74l0.75 0.13c0.23-1.31 0.85-2.51 1.79-3.47L-357.36 465.47z"/><path class="st0" d="M-351.87 463.16c-0.17 0-0.34 0.01-0.51 0.02l-0.07-0.63c0.19-0.15 0.3-0.39 0.27-0.64 -0.05-0.39-0.4-0.67-0.8-0.63 -0.39 0.05-0.67 0.4-0.63 0.8 0.03 0.25 0.19 0.46 0.4 0.56l0.07 0.62c-0.71 0.12-1.4 0.33-2.06 0.65l0.33 0.68c0.93-0.45 1.94-0.67 3-0.67 0.5 0 0.99 0.05 1.48 0.16l0.16-0.74C-350.77 463.22-351.32 463.16-351.87 463.16z"/><path class="st0" d="M-345.27 465.71c0.33-0.04 0.57-0.34 0.53-0.67 -0.04-0.33-0.34-0.57-0.67-0.53 -0.31 0.04-0.54 0.3-0.53 0.61l-0.42 0.36c-0.42-0.43-0.89-0.81-1.41-1.14l-0.4 0.64c1.13 0.71 2.02 1.73 2.56 2.93l0.69-0.31c-0.25-0.55-0.57-1.07-0.94-1.55l0.4-0.35C-345.4 465.72-345.33 465.72-345.27 465.71z"/><path class="st0" d="M-352.42 473.37c-0.39 0.02-0.77 0.03-1.16 0.03 -0.88 0-1.73-0.06-2.48-0.18 -0.39-0.06-0.85-0.15-1.27-0.29 1.05 1.86 3.07 3.13 5.39 3.13 2.86 0 5.26-1.92 5.95-4.5 -0.68 0.45-1.51 0.83-2.46 1.12C-349.62 473.05-351 473.29-352.42 473.37z"/><path class="st0" d="M-351.87 464.68c-3.35 0-6.08 2.67-6.08 5.94 0 0.43 0.05 0.85 0.14 1.26 0.67 0.48 2.71 0.89 5.35 0.73 2.88-0.17 5.3-0.96 6.67-2.16 -0.01-0.19-0.02-0.39-0.05-0.58C-346.22 466.91-348.81 464.68-351.87 464.68zM-354.03 471.19c-1.02 0-1.85-0.83-1.85-1.85 0-1.02 0.83-1.85 1.85-1.85 1.02 0 1.85 0.83 1.85 1.85C-352.18 470.36-353.01 471.19-354.03 471.19zM-349.29 470.29c-0.75 0-1.36-0.61-1.36-1.36s0.61-1.36 1.36-1.36c0.75 0 1.36 0.61 1.36 1.36S-348.54 470.29-349.29 470.29z"/><path class="st0" d="M-335.87 466.55c-0.29-0.12-0.81-0.31-1.38-0.24 -0.55 0.07-0.84 0.34-0.84 1.01v0.87h2.23v1.72h-2.23v5.45h-1.93v-5.45h-1.34v-1.72h1.34v-0.89c0-1.68 0.9-2.78 2.57-2.78 0.64 0 1.16 0.12 1.59 0.31L-335.87 466.55z"/><path class="st0" d="M-331.17 469.88c-0.18-0.03-0.36-0.05-0.53-0.05 -0.9 0-1.51 0.55-1.51 1.61v3.91h-1.93v-7.17h1.87v0.78c0.45-0.67 1.14-0.98 2.02-0.98 0.41 0 0.85 0.13 1.09 0.34L-331.17 469.88z"/><path class="st0" d="M-323.5 471.76c0 0.22-0.01 0.49-0.04 0.65h-5.08c0.21 1.04 0.93 1.49 1.84 1.49 0.62 0 1.3-0.25 1.81-0.69l1.13 1.24c-0.81 0.75-1.85 1.09-3.06 1.09 -2.2 0-3.72-1.5-3.72-3.75 0-2.26 1.48-3.8 3.63-3.8C-324.92 467.99-323.51 469.52-323.5 471.76zM-328.61 471.09h3.18c-0.18-0.92-0.73-1.44-1.56-1.44C-327.91 469.65-328.44 470.2-328.61 471.09z"/><path class="st0" d="M-315.84 471.76c0 0.22-0.01 0.49-0.04 0.65h-5.08c0.21 1.04 0.93 1.49 1.84 1.49 0.62 0 1.3-0.25 1.81-0.69l1.13 1.24c-0.81 0.75-1.85 1.09-3.06 1.09 -2.2 0-3.72-1.5-3.72-3.75 0-2.26 1.48-3.8 3.63-3.8C-317.27 467.99-315.85 469.52-315.84 471.76zM-320.96 471.09h3.18c-0.18-0.92-0.73-1.44-1.56-1.44C-320.26 469.65-320.79 470.2-320.96 471.09z"/><path class="st0" d="M-307.5 471.76c0 2.15-1.49 3.77-3.47 3.77 -0.96 0-1.64-0.38-2.11-0.93v3.71H-315v-10.13h1.89v0.79c0.47-0.58 1.15-0.98 2.14-0.98C-308.99 467.99-307.5 469.61-307.5 471.76zM-313.18 471.76c0 1.13 0.75 1.98 1.84 1.98 1.14 0 1.85-0.88 1.85-1.98 0-1.1-0.71-1.98-1.85-1.98C-312.43 469.79-313.18 470.63-313.18 471.76z"/><path class="st0" d="M-304.4 465.84c0 0.7-0.54 1.23-1.24 1.23 -0.7 0-1.23-0.53-1.23-1.23 0-0.7 0.53-1.24 1.23-1.24C-304.94 464.59-304.4 465.14-304.4 465.84zM-304.65 475.35h-1.93v-7.17h1.93V475.35z"/><path class="st0" d="M-301.43 470.74l2.7-2.55h2.37l-3.48 3.38 3.5 3.8h-2.38l-2.72-2.9v2.9h-1.93V464.7h1.93V470.74z"/><path class="st0" d="M-433.05 475.29v-1.05c-0.53 0.72-1.39 1.23-2.39 1.23 -1.85 0-3.15-1.41-3.15-3.71 0-2.26 1.29-3.72 3.15-3.72 0.95 0 1.82 0.47 2.39 1.25v-3.76h1.1v9.77H-433.05zM-433.05 473.37v-3.21c-0.4-0.62-1.24-1.14-2.12-1.14 -1.42 0-2.27 1.17-2.27 2.74 0 1.57 0.85 2.72 2.27 2.72C-434.3 474.48-433.45 473.99-433.05 473.37z"/><path class="st0" d="M-430.53 471.74c0-2.05 1.46-3.71 3.49-3.71 2.14 0 3.4 1.67 3.4 3.79v0.28h-5.73c0.09 1.33 1.03 2.45 2.55 2.45 0.81 0 1.63-0.32 2.18-0.89l0.53 0.72c-0.7 0.7-1.65 1.08-2.81 1.08C-429.02 475.46-430.53 473.96-430.53 471.74zM-427.06 468.95c-1.51 0-2.26 1.27-2.31 2.36h4.64C-424.75 470.25-425.45 468.95-427.06 468.95z"/><path class="st0" d="M-422.86 474.35l0.57-0.79c0.47 0.54 1.36 1.01 2.33 1.01 1.08 0 1.67-0.51 1.67-1.22 0-1.71-4.38-0.66-4.38-3.28 0-1.1 0.95-2.04 2.64-2.04 1.2 0 2.05 0.45 2.62 1.03l-0.51 0.76c-0.42-0.51-1.2-0.89-2.11-0.89 -0.97 0-1.57 0.48-1.57 1.11 0 1.55 4.38 0.53 4.38 3.28 0 1.19-0.95 2.14-2.78 2.14C-421.16 475.46-422.14 475.11-422.86 474.35z"/><path class="st0" d="M-415.99 466.47c0-0.41 0.34-0.75 0.73-0.75 0.41 0 0.75 0.34 0.75 0.75 0 0.41-0.34 0.73-0.75 0.73C-415.65 467.2-415.99 466.88-415.99 466.47zM-415.8 475.29v-7.07h1.1v7.07H-415.8z"/><path class="st0" d="M-412.88 477.11l0.56-0.82c0.59 0.7 1.29 0.97 2.3 0.97 1.17 0 2.27-0.57 2.27-2.12v-1.01c-0.51 0.72-1.38 1.26-2.37 1.26 -1.85 0-3.15-1.38-3.15-3.66 0-2.27 1.29-3.68 3.15-3.68 0.95 0 1.8 0.47 2.37 1.25v-1.07h1.1v6.87c0 2.34-1.64 3.08-3.37 3.08C-411.23 478.16-412.05 477.93-412.88 477.11zM-407.75 473.25v-3.09c-0.38-0.62-1.23-1.14-2.11-1.14 -1.42 0-2.27 1.13-2.27 2.7 0 1.55 0.85 2.7 2.27 2.7C-408.98 474.41-408.14 473.87-407.75 473.25z"/><path class="st0" d="M-400.05 475.29v-4.63c0-1.24-0.63-1.64-1.58-1.64 -0.86 0-1.68 0.53-2.09 1.1v5.17h-1.1v-7.07h1.1v1.03c0.5-0.59 1.46-1.2 2.52-1.2 1.48 0 2.26 0.75 2.26 2.29v4.97H-400.05z"/><path class="st0" d="M-397.53 471.74c0-2.05 1.46-3.71 3.49-3.71 2.14 0 3.4 1.67 3.4 3.79v0.28h-5.73c0.09 1.33 1.03 2.45 2.55 2.45 0.81 0 1.63-0.32 2.18-0.89l0.53 0.72c-0.7 0.7-1.66 1.08-2.81 1.08C-396.02 475.46-397.53 473.96-397.53 471.74zM-394.06 468.95c-1.51 0-2.26 1.27-2.31 2.36h4.64C-391.74 470.25-392.45 468.95-394.06 468.95z"/><path class="st0" d="M-384.11 475.29v-1.05c-0.53 0.72-1.39 1.23-2.39 1.23 -1.85 0-3.15-1.41-3.15-3.71 0-2.26 1.29-3.72 3.15-3.72 0.95 0 1.82 0.47 2.39 1.25v-3.76h1.1v9.77H-384.11zM-384.11 473.37v-3.21c-0.4-0.62-1.25-1.14-2.12-1.14 -1.42 0-2.27 1.17-2.27 2.74 0 1.57 0.85 2.72 2.27 2.72C-385.36 474.48-384.51 473.99-384.11 473.37z"/><path class="st0" d="M-377.77 475.29v-9.77h1.1v3.76c0.57-0.78 1.42-1.25 2.39-1.25 1.85 0 3.15 1.46 3.15 3.72 0 2.3-1.3 3.71-3.15 3.71 -1 0-1.86-0.51-2.39-1.23v1.05H-377.77zM-374.56 474.48c1.44 0 2.29-1.16 2.29-2.72 0-1.57-0.85-2.74-2.29-2.74 -0.86 0-1.73 0.53-2.11 1.14v3.21C-376.29 473.99-375.43 474.48-374.56 474.48z"/><path class="st0" d="M-369.93 477.06c0.16 0.07 0.42 0.12 0.6 0.12 0.48 0 0.81-0.16 1.05-0.75l0.47-1.07 -2.96-7.15h1.19l2.36 5.8 2.34-5.8h1.2l-3.54 8.51c-0.42 1.03-1.14 1.42-2.08 1.44 -0.23 0-0.6-0.04-0.81-0.1L-369.93 477.06z"/><path class="st0" d="M385.1 465.47c-0.43 0.44-0.8 0.93-1.11 1.45l-0.47-0.24c-0.07-0.3-0.35-0.5-0.66-0.47 -0.33 0.04-0.57 0.34-0.53 0.67 0.04 0.33 0.34 0.57 0.67 0.53 0.07-0.01 0.13-0.03 0.18-0.05l0.45 0.23c-0.25 0.55-0.43 1.14-0.54 1.74l0.75 0.13c0.23-1.31 0.85-2.51 1.79-3.47L385.1 465.47z"/><path class="st0" d="M390.59 463.16c-0.17 0-0.34 0.01-0.51 0.02l-0.07-0.63c0.19-0.15 0.3-0.39 0.27-0.64 -0.05-0.39-0.4-0.67-0.8-0.63 -0.39 0.05-0.67 0.4-0.63 0.8 0.03 0.25 0.19 0.46 0.4 0.56l0.07 0.62c-0.71 0.12-1.4 0.33-2.06 0.65l0.33 0.68c0.93-0.45 1.94-0.67 3-0.67 0.5 0 0.99 0.05 1.48 0.16l0.16-0.74C391.69 463.22 391.14 463.16 390.59 463.16z"/><path class="st0" d="M397.19 465.71c0.33-0.04 0.57-0.34 0.53-0.67 -0.04-0.33-0.34-0.57-0.67-0.53 -0.31 0.04-0.54 0.3-0.53 0.61l-0.42 0.36c-0.42-0.43-0.89-0.81-1.41-1.14l-0.4 0.64c1.13 0.71 2.02 1.73 2.56 2.93l0.69-0.31c-0.25-0.55-0.57-1.07-0.94-1.55l0.4-0.35C397.06 465.72 397.13 465.72 397.19 465.71z"/><path class="st0" d="M390.04 473.37c-0.39 0.02-0.77 0.03-1.16 0.03 -0.88 0-1.73-0.06-2.48-0.18 -0.39-0.06-0.85-0.15-1.27-0.29 1.05 1.86 3.07 3.13 5.39 3.13 2.86 0 5.26-1.92 5.95-4.5 -0.68 0.45-1.51 0.83-2.46 1.12C392.84 473.05 391.46 473.29 390.04 473.37z"/><path class="st0" d="M390.59 464.68c-3.35 0-6.08 2.67-6.08 5.94 0 0.43 0.05 0.85 0.14 1.26 0.67 0.48 2.71 0.89 5.35 0.73 2.88-0.17 5.3-0.96 6.67-2.16 -0.01-0.19-0.02-0.39-0.05-0.58C396.24 466.91 393.65 464.68 390.59 464.68zM388.43 471.19c-1.02 0-1.85-0.83-1.85-1.85 0-1.02 0.83-1.85 1.85-1.85 1.02 0 1.85 0.83 1.85 1.85C390.28 470.36 389.45 471.19 388.43 471.19zM393.17 470.29c-0.75 0-1.36-0.61-1.36-1.36s0.61-1.36 1.36-1.36c0.75 0 1.36 0.61 1.36 1.36S393.92 470.29 393.17 470.29z"/><path class="st0" d="M406.6 466.55c-0.29-0.12-0.81-0.31-1.38-0.24 -0.55 0.07-0.84 0.34-0.84 1.01v0.87h2.23v1.72h-2.23v5.45h-1.93v-5.45h-1.34v-1.72h1.34v-0.89c0-1.68 0.9-2.78 2.57-2.78 0.64 0 1.16 0.12 1.59 0.31L406.6 466.55z"/><path class="st0" d="M411.3 469.88c-0.18-0.03-0.36-0.05-0.53-0.05 -0.9 0-1.51 0.55-1.51 1.61v3.91h-1.93v-7.17h1.87v0.78c0.45-0.67 1.14-0.98 2.02-0.98 0.41 0 0.85 0.13 1.09 0.34L411.3 469.88z"/><path class="st0" d="M418.97 471.76c0 0.22-0.01 0.49-0.04 0.65h-5.08c0.21 1.04 0.93 1.49 1.84 1.49 0.62 0 1.3-0.25 1.81-0.69l1.13 1.24c-0.81 0.75-1.85 1.09-3.06 1.09 -2.2 0-3.72-1.5-3.72-3.75 0-2.26 1.48-3.8 3.63-3.8C417.54 467.99 418.96 469.52 418.97 471.76zM413.85 471.09h3.18c-0.18-0.92-0.73-1.44-1.56-1.44C414.55 469.65 414.02 470.2 413.85 471.09z"/><path class="st0" d="M426.62 471.76c0 0.22-0.01 0.49-0.04 0.65h-5.08c0.21 1.04 0.93 1.49 1.84 1.49 0.62 0 1.3-0.25 1.81-0.69l1.13 1.24c-0.81 0.75-1.85 1.09-3.06 1.09 -2.2 0-3.72-1.5-3.72-3.75 0-2.26 1.48-3.8 3.63-3.8C425.2 467.99 426.61 469.52 426.62 471.76zM421.5 471.09h3.18c-0.18-0.92-0.73-1.44-1.56-1.44C422.21 469.65 421.67 470.2 421.5 471.09z"/><path class="st0" d="M434.96 471.76c0 2.15-1.49 3.77-3.47 3.77 -0.96 0-1.64-0.38-2.11-0.93v3.71h-1.92v-10.13h1.89v0.79c0.47-0.58 1.15-0.98 2.14-0.98C433.47 467.99 434.96 469.61 434.96 471.76zM429.29 471.76c0 1.13 0.75 1.98 1.84 1.98 1.14 0 1.85-0.88 1.85-1.98 0-1.1-0.71-1.98-1.85-1.98C430.03 469.79 429.29 470.63 429.29 471.76z"/><path class="st0" d="M438.07 465.84c0 0.7-0.54 1.23-1.24 1.23 -0.7 0-1.23-0.53-1.23-1.23 0-0.7 0.53-1.24 1.23-1.24C437.53 464.59 438.07 465.14 438.07 465.84zM437.81 475.35h-1.93v-7.17h1.93V475.35z"/><path class="st0" d="M441.03 470.74l2.7-2.55h2.37l-3.48 3.38 3.5 3.8h-2.38l-2.72-2.9v2.9h-1.93V464.7h1.93V470.74z"/><path class="st0" d="M309.41 475.29v-1.05c-0.53 0.72-1.39 1.23-2.39 1.23 -1.85 0-3.15-1.41-3.15-3.71 0-2.26 1.29-3.72 3.15-3.72 0.95 0 1.82 0.47 2.39 1.25v-3.76h1.1v9.77H309.41zM309.41 473.37v-3.21c-0.4-0.62-1.24-1.14-2.12-1.14 -1.42 0-2.27 1.17-2.27 2.74 0 1.57 0.85 2.72 2.27 2.72C308.17 474.48 309.02 473.99 309.41 473.37z"/><path class="st0" d="M311.93 471.74c0-2.05 1.46-3.71 3.49-3.71 2.14 0 3.4 1.67 3.4 3.79v0.28h-5.73c0.09 1.33 1.03 2.45 2.55 2.45 0.81 0 1.63-0.32 2.18-0.89l0.53 0.72c-0.7 0.7-1.65 1.08-2.81 1.08C313.44 475.46 311.93 473.96 311.93 471.74zM315.4 468.95c-1.51 0-2.26 1.27-2.31 2.36h4.64C317.72 470.25 317.01 468.95 315.4 468.95z"/><path class="st0" d="M319.61 474.35l0.57-0.79c0.47 0.54 1.36 1.01 2.33 1.01 1.08 0 1.67-0.51 1.67-1.22 0-1.71-4.38-0.66-4.38-3.28 0-1.1 0.95-2.04 2.64-2.04 1.2 0 2.05 0.45 2.62 1.03l-0.51 0.76c-0.42-0.51-1.2-0.89-2.11-0.89 -0.97 0-1.57 0.48-1.57 1.11 0 1.55 4.38 0.53 4.38 3.28 0 1.19-0.95 2.14-2.78 2.14C321.31 475.46 320.32 475.11 319.61 474.35z"/><path class="st0" d="M326.48 466.47c0-0.41 0.34-0.75 0.73-0.75 0.41 0 0.75 0.34 0.75 0.75 0 0.41-0.34 0.73-0.75 0.73C326.81 467.2 326.48 466.88 326.48 466.47zM326.67 475.29v-7.07h1.1v7.07H326.67z"/><path class="st0" d="M329.58 477.11l0.56-0.82c0.59 0.7 1.29 0.97 2.3 0.97 1.17 0 2.27-0.57 2.27-2.12v-1.01c-0.51 0.72-1.38 1.26-2.37 1.26 -1.85 0-3.15-1.38-3.15-3.66 0-2.27 1.29-3.68 3.15-3.68 0.95 0 1.8 0.47 2.37 1.25v-1.07h1.1v6.87c0 2.34-1.64 3.08-3.37 3.08C331.24 478.16 330.42 477.93 329.58 477.11zM334.71 473.25v-3.09c-0.38-0.62-1.23-1.14-2.11-1.14 -1.42 0-2.27 1.13-2.27 2.7 0 1.55 0.85 2.7 2.27 2.7C333.48 474.41 334.33 473.87 334.71 473.25z"/><path class="st0" d="M342.41 475.29v-4.63c0-1.24-0.63-1.64-1.58-1.64 -0.86 0-1.68 0.53-2.09 1.1v5.17h-1.1v-7.07h1.1v1.03c0.5-0.59 1.46-1.2 2.52-1.2 1.48 0 2.26 0.75 2.26 2.29v4.97H342.41z"/><path class="st0" d="M344.93 471.74c0-2.05 1.46-3.71 3.49-3.71 2.14 0 3.4 1.67 3.4 3.79v0.28h-5.73c0.09 1.33 1.03 2.45 2.55 2.45 0.81 0 1.63-0.32 2.18-0.89l0.53 0.72c-0.7 0.7-1.66 1.08-2.81 1.08C346.44 475.46 344.93 473.96 344.93 471.74zM348.4 468.95c-1.51 0-2.26 1.27-2.31 2.36h4.64C350.72 470.25 350.02 468.95 348.4 468.95z"/><path class="st0" d="M358.35 475.29v-1.05c-0.53 0.72-1.39 1.23-2.39 1.23 -1.85 0-3.15-1.41-3.15-3.71 0-2.26 1.29-3.72 3.15-3.72 0.95 0 1.82 0.47 2.39 1.25v-3.76h1.1v9.77H358.35zM358.35 473.37v-3.21c-0.4-0.62-1.25-1.14-2.12-1.14 -1.42 0-2.27 1.17-2.27 2.74 0 1.57 0.85 2.72 2.27 2.72C357.1 474.48 357.95 473.99 358.35 473.37z"/><path class="st0" d="M364.69 475.29v-9.77h1.1v3.76c0.57-0.78 1.42-1.25 2.39-1.25 1.85 0 3.15 1.46 3.15 3.72 0 2.3-1.3 3.71-3.15 3.71 -1 0-1.86-0.51-2.39-1.23v1.05H364.69zM367.9 474.48c1.44 0 2.29-1.16 2.29-2.72 0-1.57-0.85-2.74-2.29-2.74 -0.86 0-1.73 0.53-2.11 1.14v3.21C366.17 473.99 367.04 474.48 367.9 474.48z"/><path class="st0" d="M372.53 477.06c0.16 0.07 0.42 0.12 0.6 0.12 0.48 0 0.81-0.16 1.05-0.75l0.47-1.07 -2.96-7.15h1.19l2.36 5.8 2.34-5.8h1.2l-3.54 8.51c-0.42 1.03-1.14 1.42-2.08 1.44 -0.23 0-0.6-0.04-0.81-0.1L372.53 477.06z"/><defs><rect width="750" height="500"/></defs><clipPath><use xlink:href="#SVGID_1_"/></clipPath><linearGradient gradientUnits="userSpaceOnUse" x1="143.36" y1="614.98" x2="494.962" y2="60.983"><stop offset="0" stop-color="#000"/><stop offset="1" class="a"/></linearGradient><rect class="st1" width="750" height="500"/><g class="st2"><linearGradient gradientUnits="userSpaceOnUse" x1="400.138" y1="366.912" x2="145.142" y2="330.026"><stop offset="0" style="stop-color:#553AD0;stop-opacity:0"/><stop offset="1" stop-color="#553AD0"/></linearGradient><path class="st3" d="M131.78 264.53c42.55 159.29 165.38 248.68 321.71 32.88l-117.73 51.43L131.78 264.53z"/><linearGradient gradientUnits="userSpaceOnUse" x1="361.675" y1="328.386" x2="259.035" y2="240.18"><stop offset="0" class="a"/><stop offset="1" class="b"/></linearGradient><path class="st4" d="M246.45 276.33c-11.18 13.85-21.7 25.96-31.62 36.3 65.91 25.53 125.93 42.83 157.43 35.5 31.59-7.35 52.41-31.37 74.42-55.61C361.36 213.09 321.25 183.67 246.45 276.33z"/><linearGradient gradientUnits="userSpaceOnUse" x1="197.974" y1="212.277" x2="178.729" y2="358.219"><stop offset="0" class="a"/><stop offset="1" class="b"/></linearGradient><path class="st5" d="M245.86 310.08c-38.05-14.74-78.4-32.71-115.04-49.54"/><linearGradient gradientUnits="userSpaceOnUse" x1="776.979" y1="186.476" x2="736.886" y2="265.059"><stop offset="0" class="a"/><stop offset="1" class="b"/></linearGradient><path class="st6" d="M714.53 193.89c-10.15 12.63-29.29 49.26-54.95 85.01 26.19 7.54 53.7 9.11 86.42-6.42h57.33C777.48 219.64 747.13 153.32 714.53 193.89z"/><linearGradient gradientUnits="userSpaceOnUse" x1="449.593" y1="385.085" x2="698.174" y2="197.446"><stop offset="0" class="a"/><stop offset="1" class="b"/></linearGradient><path class="st7" d="M553.22 232.7c-51.45 0.72-79.86 30.44-106.54 59.82 15.74 14.65 33.01 31 52.33 48.6 79.88 72.8 151.93 5.26 202.47-65.17C653.98 262.28 610.17 231.89 553.22 232.7z"/><linearGradient gradientUnits="userSpaceOnUse" x1="397.692" y1="118.813" x2="385.327" y2="371.744"><stop offset="0" class="c"/><stop offset="0.9877" class="d"/></linearGradient><path class="st8" d="M4.23 241.42c-26.07 4.36-47.01 19.4-73.52 10.2 -22.13-7.68-40.64-26.04-49.04-47.84 -12.85-33.34-5.46-71.74 11.27-103.31 7.21-13.62 19.69-28.02 34.87-25.4 9.65 1.67 16.76 9.92 21.7 18.39 11.19 19.19 20.72 35.5 45.58 36.33 14.97 0.5 29.52-4.56 43.59-9.71s28.44-10.52 43.42-10.67c59.93-0.61 82.88 65.94 106.21 109.03 21.68 40.04 55.35 87.9 102.61 90.88 41.43 2.62 86.46-32.57 113.07-61.14 30.08-32.29 61.21-67.26 95.48-95.84 83.11-69.31 125.58 29.67 195.21 58.31 40.84 16.8 70.65 1.46 94.79-34.18 19.93-29.43 33.56-64.6 62.03-85.87 19.57-14.63 53.13-17.7 64 4.18 9.17 18.45-4.53 39.61-17.51 55.61 -24.32 29.98-48.87 60.19-78.83 84.53 -29.95 24.35-66.1 42.72-104.63 45.13 -75.25 4.72-150.49-50.71-221.75-26.09 -34.67 11.98-60.25 40.76-87.32 65.52 -27.08 24.75-61.19 47.51-97.55 42.67 -35.75-4.75-62.06-34.25-90.13-56.9C157.6 256.66 80.53 228.66 4.23 241.42z"/><linearGradient gradientUnits="userSpaceOnUse" x1="-95.023" y1="164.665" x2="129.415" y2="164.665"><stop offset="0" class="c"/><stop offset="0.9877" class="d"/></linearGradient><path class="st9" d="M-50.49 93.46c-4.94-8.46-12.05-16.72-21.7-18.39 -8.65-1.49-16.42 2.54-22.84 8.8l24.91 76.19c0 0 35.67 24.53 123.68 64.68 12.74 5.81 27.39 12.66 43.3 20.06 11.01 2.55 21.88 5.84 32.56 9.77C103.6 145.95 70.11 129.39 0.48 129.73c-1.79 0.09-3.58 0.12-5.38 0.05C-29.77 128.95-39.3 112.65-50.49 93.46z"/><linearGradient gradientUnits="userSpaceOnUse" x1="363.525" y1="374.518" x2="381.954" y2="144.982"><stop offset="0" stop-color="#FF4B9A"/><stop offset="0.999" stop-color="#FFEC7E"/></linearGradient><path class="st10" d="M852 202.35c-3.96 12.27-13.24 22.03-22.81 30.67 -27.8 25.12-59.46 49.34-96.4 58.73 -49.25 12.52-93.21-13.9-138.11-29.44 -26.28-9.1-55.11-13.41-81.71-5.3 -58.12 17.72-122.11 126.62-185.59 127.16 -52.39 0.45-83.72-35.93-117.97-62.52 -25.08-19.46-50.62-41.7-77.64-57.12 -35.87-20.5-74.33-29.01-117.73-3.18 -0.46 0.27-0.9 0.54-1.36 0.81 -23.07 14.08-52.16 36.19-78.98 17.49C-80.9 269.47-86.07 250.48-89 232.9c-0.39-2.39-0.77-4.78-1.12-7.16 -0.36-2.4-0.69-4.79-0.99-7.19 -5.31-41.34-3.96-83.52 4.02-124.44 1.63-8.4 5.56-18.59 14.1-19.12 8.99-0.56 13.97 9.91 17.11 18.35 15.02 40.35 41.76 71.97 74.12 97.63 33.06 26.22 71.98 46.18 110.27 62.81 0.24 0.11 0.48 0.21 0.72 0.31 28.57 12.38 55.68 26.47 84.22 38.7 57.13 24.48 116.69 32.63 171.84-1.8 50.74-31.68 85.61-90.79 152.33-87.33 62.49 3.22 96.42 77.11 157.46 74.52 20.48-0.87 39.35-12.4 53.37-27.37 17.83-19.03 27.6-43.41 43.35-63.9 2.72-3.55 5.65-7.01 8.85-10.15 3.91-3.82 8.24-7.14 13.15-9.51 8.95-4.31 20.16-4.95 28.49 0.46C853.08 174.75 855.95 190.08 852 202.35z"/><linearGradient gradientUnits="userSpaceOnUse" x1="602.492" y1="291.615" x2="661.83" y2="203.409"><stop offset="0" class="e"/><stop offset="0.6014" stop-color="#FF88AC"/><stop offset="1" class="f"/></linearGradient><path class="st11" d="M732.79 291.74c11.77-2.99 23-7.49 33.74-13.05C585.96 144.58 567.6 176.85 425.31 324.07l0 0c30.11-28.64 59.57-58.5 87.67-67.07 26.59-8.11 55.43-3.8 81.71 5.3C639.58 277.84 683.54 304.26 732.79 291.74z"/><linearGradient gradientUnits="userSpaceOnUse" x1="-43.049" y1="368.275" x2="56.684" y2="154.893"><stop offset="0" class="e"/><stop offset="1" class="f"/></linearGradient><path class="st12" d="M131.78 264.53c-35.87-20.5-74.33-29.01-117.73-3.18 -0.46 0.27-0.9 0.54-1.36 0.81 -23.07 14.08-52.16 36.19-78.98 17.49C-80.9 269.47-86.07 250.48-89 232.9c-0.39-2.39-0.77-4.78-1.12-7.16 -0.35-2.4-0.68-4.79-0.99-7.19 -0.61-4.8-1.13-9.61-1.56-14.42 28.64-0.23 70.61-11.36 110.91-13.17 3.58-0.16 7.15-0.25 10.7-0.25 42.75 0 82.08 12.74 99.57 63.06C129.71 257.19 130.8 260.76 131.78 264.53z"/></g></svg>
